<svg xmlns="http://www.w3.org/2000/svg" width="55" height="24" viewBox="0 0 55 24">
    <path fill="#FFF" fill-rule="evenodd" d="M45.307 23.681h-3.36v-11.46h3.364l-.004 11.46zm9.133-8.251l-.192-.098c-1.14-.646-2.324-1.015-3.267-1.015-.964 0-1.548.301-1.548.792 0 .492.12.591 2.005 1.359 1.58.642 2.375 1.157 2.982 1.925.383.517.58 1.114.58 1.85 0 2.315-1.647 3.625-4.553 3.625-1.398 0-3.142-.368-3.99-.84V20.51c1.357.719 2.49 1.065 3.558 1.065 1.04 0 1.693-.317 1.693-.865 0-.493-.295-.741-1.315-1.185l-.82-.345a22.424 22.424 0 0 0-.89-.393 8.832 8.832 0 0 1-.969-.495 3.186 3.186 0 0 1-1.479-2.717c0-2.12 1.843-3.527 4.577-3.527 1.338 0 2.467.244 3.46.764l.172.074-.004 2.543zm-29.282 5.405c-.525.515-1.284.836-1.866.836-.701 0-1.212-.52-1.212-1.211 0-.814.582-1.406 1.85-1.877l.917-.365.31-.13v2.746l.001.001zm3.535.704l.005-5.622c0-1.09-.1-1.608-.335-2.076-.63-1.162-2.234-1.852-4.391-1.852-.77-.005-1.787.121-2.466.316-.73.195-1.745.666-2.402 1.064v2.912c1.116-1.182 2.71-1.922 4.116-1.922 1.339 0 1.94.565 1.94 1.779v.148l-.163.043-.54.183-.703.217c-2.129.692-2.758.923-3.439 1.285-1.135.64-1.794 1.682-1.794 2.82 0 1.723 1.33 2.985 3.124 2.985 1.216 0 2.23-.322 3.442-1.112l.247-.15c.108 1.032.71 1.291 3.437 1.117h3.955l2.22-3.4 2.319 3.4 4.283.004-4.42-5.919 4.023-5.554h-4.278l-1.928 3.066-2.038-3.066-4.31-.002 4.2 5.556-3.038 4.225c-.335.458-1.063.158-1.066-.445zm-25.18-4.728c0-.682.458-2.227 1.797-2.227 1.176 0 1.713.916 1.704 2.912l.016 6.178h3.593v-6.836c0-.69.463-2.217 1.799-2.217 1.178 0 1.706.917 1.706 2.908l-.002 6.146h3.572v-6.86c0-1.155-.135-1.965-.412-2.532-.693-1.38-2.005-2.2-3.696-2.2-2.5-.006-3.413 2.412-3.413 2.412-.812-1.791-2.155-2.418-3.986-2.418-1.362 0-2.232.939-2.662 1.775v-1.64H.006L0 23.674h3.525l-.012-6.863zm35.87-9.97c.524.098 1.215.451 1.882 1.003 0 0-.657-1.255-2.318-2.412-.461-.34-.651-.378-.71-.563-.048-.178.313-.203.726-.1 0 0 2.726.5 4.787 2.834 0 0-1.085-2.565-4.406-4.106-.263-.128-.698-.24-.698-.43.01-.415 2.874-.46 6.835 3.409 0 0-1.135-2.968-5.234-4.645-.39-.138-.633-.22-.55-.332.29-.336 3.254-.625 7.199 3.126 0 0-1.252-2.976-5.051-4.061-.305-.073-.567-.147-.385-.248.376-.167 1.847-.097 4.14.995 0 0-.591-.732-1.703-1.192 0 0-.342-.137-.022-.117 0 0 2.497.199 3.64 2.421.2.39.063.697-.359.388a10.828 10.828 0 0 0-1.233-.713s1.012.41 2.091 2.674c0 0 .59 1.146.096 1.444-.265.162-.595-.073-.892-.312a17.854 17.854 0 0 0-1.645-1.234s1.018.8 1.586 2.508c0 0 .486 1.126-.206 1.48-.377.192-.785-.218-1.073-.547-.28-.317-.462-.597-1.427-1.477.18.173.909 1.48 1.088 2.043.162.492.193 1.133-.353 1.223-.351.057-.645-.39-.858-.628 0 0-.698-.896-1.77-1.645 0 0 .306.275.575 1.432 0 0 .192.898-.436.841-.236-.022-.425-.207-.68-.463-1.315-1.316-2.275-1.773-2.394-1.639-.134.143.451 1 .671 1.243.092.11.163.207.232.266.466.463.14.288-.155.07a5.007 5.007 0 0 1-.37-.3 5.272 5.272 0 0 1-1.358-1.84c-.127-.346.028-.55.736-.4l.002.004z"/>
</svg>
